<svg id="svg" version="1.1" width="400" height="128.77792378449408" viewBox="0 0 400 128.77792378449408" xmlns="http://www.w3.org/2000/svg" xmlns:xlink="http://www.w3.org/1999/xlink" ><g id="svgg"><path id="path0" d="M363.062 5.233 C 362.168 5.634,361.966 6.482,362.030 9.570 C 362.093 12.677,361.986 12.516,364.191 12.810 C 369.292 13.489,373.198 16.646,373.459 20.303 C 373.532 21.321,373.209 25.030,372.826 27.583 C 370.412 43.656,371.765 52.828,377.584 59.833 C 379.979 62.716,379.981 62.736,378.118 65.040 C 371.802 72.855,370.583 79.442,372.496 95.417 C 373.633 104.915,373.665 105.623,373.032 107.046 C 371.930 109.520,368.299 112.039,364.683 112.838 C 361.534 113.534,361.790 113.142,361.864 117.155 C 361.941 121.329,362.028 121.362,367.987 119.475 C 372.627 118.005,375.628 116.246,378.583 113.265 C 381.716 110.104,382.104 109.109,382.335 103.648 C 382.572 98.033,382.342 95.170,381.013 87.250 C 379.734 79.622,379.560 76.712,380.238 74.262 C 381.473 69.796,384.928 67.183,389.976 66.898 C 392.537 66.753,392.388 66.989,392.306 63.185 C 392.221 59.258,391.843 58.667,389.421 58.667 C 385.770 58.667,381.634 55.849,380.484 52.579 C 379.551 49.923,379.765 45.237,381.177 37.417 C 382.281 31.300,382.819 23.127,382.359 19.445 C 381.966 16.296,379.506 12.354,376.333 9.788 C 373.357 7.381,364.813 4.449,363.062 5.233 M33.250 5.671 C 28.947 6.136,24.328 8.414,20.949 11.740 C 16.108 16.504,15.420 22.630,18.008 37.917 C 19.811 48.570,19.554 52.070,16.727 55.360 C 14.809 57.593,13.178 58.406,9.266 59.079 C 7.197 59.435,7.333 59.158,7.333 63.009 C 7.333 66.959,7.175 66.686,9.695 67.072 C 17.535 68.273,19.942 72.076,18.935 81.667 C 18.675 84.140,18.545 84.976,17.599 90.250 C 14.415 108.004,17.738 115.436,30.750 119.662 C 36.743 121.608,37.057 121.487,37.139 117.217 C 37.217 113.125,37.457 113.484,34.217 112.846 C 26.915 111.407,25.670 109.020,26.515 98.083 C 27.034 91.364,27.099 78.029,26.625 75.570 C 25.928 71.959,24.594 69.489,21.100 65.344 C 18.899 62.733,18.905 62.772,20.460 61.116 C 26.862 54.302,28.448 46.474,26.681 30.417 C 26.028 24.478,26.040 19.048,26.710 17.737 C 27.898 15.415,30.798 13.734,34.750 13.077 C 37.331 12.647,37.167 12.917,37.167 9.113 C 37.167 6.836,37.108 5.842,36.967 5.700 C 36.746 5.479,35.143 5.467,33.250 5.671 M231.716 18.650 C 227.643 18.726,226.297 18.802,226.133 18.967 C 225.817 19.283,225.733 104.211,226.048 104.833 L 226.260 105.250 234.088 105.295 C 241.903 105.340,241.917 105.340,242.208 104.985 C 242.480 104.654,242.500 103.789,242.507 92.273 C 242.517 72.597,242.775 49.921,242.992 49.515 C 243.622 48.339,243.894 48.667,248.588 56.250 C 259.111 73.251,264.674 81.775,265.439 82.069 C 266.156 82.344,269.706 76.936,285.457 51.583 C 286.969 49.149,287.471 48.582,287.970 48.741 C 288.656 48.958,288.640 48.351,288.816 80.949 C 288.918 100.048,288.987 104.867,289.159 105.074 C 289.487 105.469,304.843 105.467,305.238 105.071 C 305.651 104.658,305.638 19.322,305.225 18.979 C 304.831 18.652,288.371 18.552,287.416 18.871 C 286.704 19.108,287.207 18.297,278.915 32.583 C 269.744 48.386,266.685 53.167,265.745 53.167 C 264.912 53.167,263.931 52.013,262.098 48.882 C 259.331 44.156,256.968 40.137,255.258 37.250 C 254.226 35.508,252.872 33.183,252.248 32.083 C 251.093 30.048,246.061 21.633,245.048 20.043 C 244.026 18.439,243.881 18.424,231.716 18.650 M70.083 18.792 C 60.695 19.091,53.515 22.840,48.461 30.083 C 45.299 34.615,44.725 37.036,44.885 45.167 C 45.031 52.634,45.918 55.272,49.583 59.141 C 53.729 63.518,58.902 66.012,71.417 69.667 C 84.084 73.367,86.744 75.162,87.114 80.260 C 87.728 88.721,78.480 91.896,65.362 87.727 C 62.246 86.737,58.642 84.718,53.333 80.990 C 51.102 79.423,51.098 79.425,48.250 83.421 C 47.608 84.321,46.004 86.414,44.686 88.071 C 41.819 91.672,41.779 91.732,41.905 92.131 C 42.197 93.049,46.790 96.401,50.784 98.609 C 58.802 103.044,66.158 104.990,74.917 104.995 C 94.434 105.006,105.559 93.603,103.693 75.500 C 102.595 64.852,95.326 58.699,78.000 53.751 C 64.205 49.812,61.167 47.738,61.167 42.259 C 61.167 32.336,75.666 31.509,90.196 40.601 C 92.805 42.235,92.532 42.335,94.779 38.917 C 95.803 37.358,97.634 34.629,98.848 32.852 C 101.457 29.032,101.440 29.080,100.460 28.277 C 92.610 21.844,81.657 18.424,70.083 18.792 M188.083 18.783 C 187.297 18.968,187.333 16.870,187.333 62.013 C 187.333 103.456,187.342 104.640,187.646 105.016 C 188.194 105.693,195.127 105.782,197.989 105.148 C 203.051 104.029,205.556 98.783,204.522 91.471 C 204.221 89.348,204.400 88.564,205.494 87.206 C 206.574 85.866,206.596 85.744,205.996 84.460 C 205.341 83.062,205.418 82.751,206.777 81.305 C 208.044 79.956,208.061 79.822,207.392 76.665 C 206.820 73.968,206.794 72.497,207.301 71.537 C 207.681 70.819,208.043 70.519,211.149 68.352 C 215.757 65.137,215.520 63.990,208.187 54.000 C 202.932 46.839,202.829 46.378,205.179 40.482 C 206.371 37.493,206.373 38.156,205.160 34.327 C 202.178 24.907,199.586 19.271,198.041 18.842 C 197.430 18.672,188.775 18.621,188.083 18.783 M147.232 19.173 C 133.491 20.621,120.290 31.815,115.278 46.268 C 105.115 75.581,124.581 105.797,153.559 105.688 C 161.574 105.658,173.500 102.274,173.500 100.030 C 173.500 99.409,167.146 88.944,165.866 87.458 C 165.513 87.048,165.247 87.082,163.022 87.826 C 157.179 89.779,149.240 89.496,144.417 87.161 C 138.991 84.536,133.487 78.009,131.514 71.861 C 130.290 68.046,130.406 55.526,131.700 51.842 C 135.422 41.245,145.793 33.896,155.583 34.919 C 158.006 35.172,160.689 35.719,162.558 36.339 C 165.485 37.311,165.718 37.165,168.981 32.333 C 173.910 25.034,174.271 24.232,173.092 23.197 C 170.880 21.255,165.734 19.682,160.421 19.324 C 159.044 19.232,157.177 19.083,156.274 18.995 C 153.900 18.762,150.501 18.829,147.232 19.173 " stroke="none" fill="#000000" fill-rule="evenodd"></path><path id="path1" d="M0.000 64.333 L 0.000 128.667 200.000 128.667 L 400.000 128.667 400.000 64.333 L 400.000 0.000 200.000 0.000 L 0.000 0.000 0.000 64.333 M366.417 4.740 C 374.625 6.740,378.982 9.829,381.979 15.772 C 383.803 19.389,383.751 27.581,381.837 38.000 C 380.636 44.539,380.366 50.218,381.159 52.250 C 382.442 55.538,385.495 57.607,389.534 57.926 C 392.624 58.170,393.326 59.557,393.138 65.059 C 393.055 67.499,392.887 67.667,390.513 67.667 C 385.483 67.667,381.993 70.243,380.894 74.767 C 380.309 77.175,380.556 80.194,382.064 89.045 C 383.517 97.576,383.540 106.794,382.116 109.888 C 380.168 114.122,374.979 117.962,368.249 120.152 C 361.645 122.301,361.125 122.071,361.025 116.949 C 360.945 112.830,360.916 112.882,363.561 112.338 C 367.419 111.544,370.990 109.354,372.267 107.000 C 372.672 106.252,372.681 102.698,372.283 99.833 C 369.631 80.698,370.705 73.116,377.228 64.949 C 379.023 62.701,379.022 62.784,377.266 60.618 C 370.914 52.780,369.770 45.651,372.033 28.000 C 372.393 25.192,372.560 23.160,372.570 21.495 L 372.583 19.073 372.000 18.100 C 370.462 15.537,367.307 13.855,363.206 13.413 C 361.407 13.219,361.049 12.308,361.206 8.333 C 361.357 4.539,362.462 3.776,366.417 4.740 M37.523 4.985 C 37.909 5.297,37.918 5.367,37.972 8.610 C 38.050 13.294,37.969 13.452,35.333 13.750 C 31.599 14.172,28.484 15.888,27.389 18.126 C 26.773 19.385,26.798 22.636,27.491 31.082 C 28.898 48.234,27.627 54.515,21.406 61.167 C 19.795 62.890,19.731 62.531,22.178 65.500 C 25.662 69.726,26.937 72.336,27.486 76.364 C 27.969 79.910,27.838 91.204,27.231 98.397 C 26.380 108.485,27.653 110.843,34.662 112.166 C 38.123 112.819,38.077 112.749,37.967 117.147 C 37.842 122.188,37.002 122.525,30.158 120.279 C 17.079 115.987,13.620 108.009,16.924 89.750 C 19.904 73.275,18.596 69.340,9.633 67.833 C 8.383 67.622,7.421 67.369,7.167 67.184 L 6.750 66.881 6.703 63.316 C 6.638 58.436,6.397 58.866,9.544 58.259 C 12.899 57.613,14.173 56.999,15.828 55.229 C 18.703 52.156,19.043 48.687,17.420 39.000 C 16.353 32.638,16.035 30.154,15.742 25.916 C 15.129 17.057,18.819 10.582,26.589 6.879 C 30.274 5.124,36.386 4.065,37.523 4.985 M356.453 16.425 C 357.302 16.981,356.872 17.661,352.331 22.939 C 349.246 26.525,348.867 26.998,347.146 29.417 C 343.899 33.978,340.853 40.047,337.398 48.833 C 336.984 49.887,336.359 51.462,336.010 52.333 C 335.661 53.204,334.902 55.154,334.322 56.667 C 333.297 59.342,332.786 60.714,331.347 64.654 C 329.587 69.471,329.003 70.525,328.303 70.150 C 327.977 69.976,326.341 67.561,324.417 64.417 C 320.632 58.232,315.158 50.582,312.458 47.707 C 310.113 45.210,310.431 44.205,313.845 43.328 C 318.192 42.210,320.347 43.568,325.469 50.648 C 327.444 53.380,327.374 53.463,330.888 44.144 C 332.564 39.701,338.344 27.907,341.332 22.833 C 344.148 18.053,347.426 16.251,353.404 16.199 C 355.521 16.181,356.151 16.227,356.453 16.425 M244.257 18.076 C 244.553 18.199,245.016 18.626,245.287 19.025 C 246.030 20.119,251.616 29.448,253.006 31.917 C 253.677 33.108,255.142 35.621,256.261 37.500 C 258.067 40.532,259.895 43.637,262.542 48.167 C 264.543 51.589,265.259 52.436,265.905 52.142 C 266.763 51.751,272.168 42.845,283.997 22.333 C 285.028 20.546,286.124 18.840,286.433 18.542 L 286.995 18.000 296.142 18.000 C 305.143 18.000,305.295 18.005,305.728 18.345 L 306.167 18.691 306.167 61.994 C 306.167 104.376,306.160 105.305,305.848 105.690 L 305.530 106.083 297.640 106.134 C 289.098 106.189,288.665 106.154,288.362 105.374 C 288.241 105.063,288.125 96.247,288.001 77.851 C 287.877 59.455,287.762 50.679,287.642 50.455 C 287.372 49.950,287.048 50.376,284.242 54.917 C 274.134 71.277,267.094 82.182,266.269 82.759 C 264.989 83.656,263.731 81.916,251.569 62.417 C 243.388 49.300,243.790 49.857,243.597 51.375 C 243.547 51.765,243.431 64.031,243.338 78.633 C 243.162 106.513,243.189 105.706,242.396 106.008 C 241.652 106.291,226.406 106.213,225.846 105.923 C 225.138 105.557,225.171 107.735,225.169 61.867 L 225.167 18.818 225.576 18.409 C 225.944 18.041,226.133 17.998,227.451 17.977 C 228.257 17.965,231.017 17.899,233.583 17.830 C 239.394 17.676,243.527 17.770,244.257 18.076 M76.583 18.175 C 84.757 18.782,92.430 21.618,99.433 26.618 C 102.661 28.923,102.645 28.597,99.739 32.842 C 98.581 34.533,96.735 37.304,95.635 39.000 C 92.787 43.394,93.054 43.286,89.919 41.309 C 76.094 32.590,61.833 33.042,61.833 42.199 C 61.833 47.226,64.625 49.096,77.833 52.915 C 98.250 58.818,105.275 66.056,104.607 80.500 C 103.784 98.299,89.925 107.883,68.583 105.413 C 60.084 104.429,49.813 99.975,43.148 94.383 C 40.387 92.067,40.381 92.288,43.301 88.632 C 45.796 85.507,47.729 82.960,48.790 81.396 C 50.520 78.849,51.230 78.669,53.472 80.208 C 54.306 80.781,55.902 81.873,57.018 82.636 C 63.159 86.829,69.555 88.812,76.324 88.619 C 83.460 88.416,86.225 86.315,86.243 81.083 C 86.260 75.956,83.977 74.164,73.500 71.078 C 55.587 65.802,49.860 62.579,46.115 55.667 C 43.342 50.550,43.164 38.542,45.782 33.192 C 49.698 25.189,58.207 18.983,66.167 18.326 C 70.271 17.987,73.439 17.941,76.583 18.175 M198.661 18.213 C 200.199 18.991,202.474 23.866,205.353 32.551 C 207.152 37.978,207.136 37.626,205.726 41.150 C 203.707 46.195,203.895 46.962,208.757 53.527 C 216.645 64.179,216.793 65.494,210.576 69.670 C 207.348 71.838,207.243 72.187,208.286 77.268 C 208.850 80.021,208.767 80.417,207.321 81.845 C 206.205 82.948,206.156 83.161,206.750 84.333 C 207.373 85.562,207.308 86.146,206.432 87.223 C 205.100 88.857,204.957 89.502,205.352 92.083 C 206.417 99.053,203.446 104.627,197.981 105.910 C 195.257 106.549,187.750 106.432,187.057 105.739 L 186.667 105.348 186.667 62.020 L 186.667 18.691 187.106 18.345 C 187.645 17.921,197.854 17.804,198.661 18.213 M159.617 18.496 C 165.113 18.945,168.107 19.630,171.061 21.114 C 175.311 23.249,175.417 23.792,172.469 28.382 C 166.413 37.818,165.842 38.345,162.902 37.239 C 150.162 32.443,136.779 39.037,132.336 52.298 C 131.363 55.203,131.124 67.583,131.980 70.750 C 133.647 76.915,139.056 83.681,144.500 86.410 C 149.239 88.786,158.021 88.986,163.584 86.843 C 165.939 85.937,165.785 85.833,168.583 90.229 C 169.743 92.050,170.977 93.963,171.326 94.479 C 174.078 98.550,174.720 100.307,173.809 101.276 C 172.102 103.093,162.811 105.823,156.542 106.351 C 130.844 108.513,109.295 85.077,111.987 57.893 C 113.924 38.334,126.042 23.527,143.898 18.900 C 146.792 18.150,153.333 17.982,159.617 18.496 M366.328 57.577 C 367.516 58.842,366.591 60.365,356.406 73.896 C 352.499 79.088,352.699 78.264,354.419 82.083 C 355.038 83.458,356.126 85.896,356.837 87.500 C 357.549 89.104,358.587 91.369,359.145 92.532 C 360.516 95.391,360.537 95.586,359.658 97.250 C 357.583 101.178,356.458 101.615,354.225 99.361 C 353.093 98.218,352.946 98.026,350.438 94.392 C 346.760 89.062,346.236 88.556,345.305 89.438 C 343.968 90.704,338.325 98.973,334.333 105.517 C 330.710 111.458,327.730 113.028,325.757 110.038 C 323.108 106.026,325.015 101.357,334.215 89.334 C 334.601 88.829,335.407 87.736,336.007 86.903 C 336.607 86.071,337.699 84.608,338.435 83.653 C 341.582 79.565,341.577 79.956,338.585 70.833 C 335.126 60.286,335.288 59.320,340.528 59.265 C 342.591 59.244,342.560 59.212,344.750 63.600 C 347.532 69.174,348.122 69.963,349.117 69.437 C 349.654 69.153,352.079 66.701,353.752 64.750 C 355.441 62.781,359.139 59.052,359.996 58.453 C 361.922 57.108,365.431 56.623,366.328 57.577 " stroke="none" fill="#ffffff" fill-rule="evenodd"></path><path id="path2" d="M362.530 4.672 C 361.370 5.379,360.881 8.077,361.307 11.414 C 361.513 13.025,361.730 13.254,363.206 13.413 C 367.307 13.855,370.462 15.537,372.000 18.100 L 372.583 19.073 372.570 21.495 C 372.560 23.160,372.393 25.192,372.033 28.000 C 369.770 45.651,370.914 52.780,377.266 60.618 C 379.022 62.784,379.023 62.701,377.228 64.949 C 370.705 73.116,369.631 80.698,372.283 99.833 C 372.681 102.698,372.672 106.252,372.267 107.000 C 370.990 109.354,367.419 111.544,363.561 112.338 C 360.916 112.882,360.945 112.830,361.025 116.949 C 361.125 122.071,361.645 122.301,368.249 120.152 C 373.959 118.294,377.980 115.701,380.670 112.139 C 382.849 109.254,383.052 108.341,383.070 101.333 C 383.085 95.586,382.998 94.533,382.064 89.045 C 380.556 80.194,380.309 77.175,380.894 74.767 C 381.993 70.243,385.483 67.667,390.513 67.667 C 392.887 67.667,393.055 67.499,393.138 65.059 C 393.326 59.557,392.624 58.170,389.534 57.926 C 385.495 57.607,382.442 55.538,381.159 52.250 C 380.366 50.218,380.636 44.539,381.837 38.000 C 383.202 30.568,383.717 21.396,382.945 18.272 C 382.173 15.147,379.456 11.239,376.461 8.945 C 372.918 6.232,364.305 3.590,362.530 4.672 M33.184 4.927 C 25.114 5.963,18.128 11.489,16.431 18.177 C 15.274 22.739,15.503 27.566,17.420 39.000 C 19.043 48.687,18.703 52.156,15.828 55.229 C 14.173 56.999,12.899 57.613,9.544 58.259 C 6.397 58.866,6.638 58.436,6.703 63.316 L 6.750 66.881 7.167 67.184 C 7.421 67.369,8.383 67.622,9.633 67.833 C 13.648 68.508,15.475 69.396,16.785 71.310 C 18.840 74.313,18.875 78.963,16.924 89.750 C 13.620 108.009,17.079 115.987,30.158 120.279 C 37.002 122.525,37.842 122.188,37.967 117.147 C 38.077 112.749,38.123 112.819,34.662 112.166 C 27.653 110.843,26.380 108.485,27.231 98.397 C 27.838 91.204,27.969 79.910,27.486 76.364 C 26.937 72.336,25.662 69.726,22.178 65.500 C 19.731 62.531,19.795 62.890,21.406 61.167 C 27.627 54.515,28.898 48.234,27.491 31.082 C 26.798 22.636,26.773 19.385,27.389 18.126 C 28.484 15.888,31.599 14.172,35.333 13.750 C 37.969 13.452,38.050 13.294,37.972 8.610 C 37.899 4.249,37.980 4.311,33.184 4.927 M366.680 5.591 C 374.586 7.573,378.669 10.572,381.447 16.437 C 382.977 19.665,382.869 28.046,381.177 37.417 C 379.765 45.237,379.551 49.923,380.484 52.579 C 381.634 55.849,385.770 58.667,389.421 58.667 C 391.843 58.667,392.221 59.258,392.306 63.185 C 392.388 66.989,392.537 66.753,389.976 66.898 C 384.928 67.183,381.473 69.796,380.238 74.262 C 379.560 76.712,379.734 79.622,381.013 87.250 C 382.971 98.920,382.960 107.083,380.982 110.451 C 378.862 114.063,373.652 117.680,367.987 119.475 C 362.028 121.362,361.941 121.329,361.864 117.155 C 361.790 113.142,361.534 113.534,364.683 112.838 C 368.299 112.039,371.930 109.520,373.032 107.046 C 373.665 105.623,373.633 104.915,372.496 95.417 C 370.583 79.442,371.802 72.855,378.118 65.040 C 379.981 62.736,379.979 62.716,377.584 59.833 C 371.765 52.828,370.412 43.656,372.826 27.583 C 373.209 25.030,373.532 21.321,373.459 20.303 C 373.198 16.646,369.292 13.489,364.191 12.810 C 361.986 12.516,362.093 12.677,362.030 9.570 C 361.934 4.890,362.375 4.512,366.680 5.591 M36.967 5.700 C 37.108 5.842,37.167 6.836,37.167 9.113 C 37.167 12.917,37.331 12.647,34.750 13.077 C 30.798 13.734,27.898 15.415,26.710 17.737 C 26.040 19.048,26.028 24.478,26.681 30.417 C 28.448 46.474,26.862 54.302,20.460 61.116 C 18.905 62.772,18.899 62.733,21.100 65.344 C 24.594 69.489,25.928 71.959,26.625 75.570 C 27.099 78.029,27.034 91.364,26.515 98.083 C 25.670 109.020,26.915 111.407,34.217 112.846 C 37.457 113.484,37.217 113.125,37.139 117.217 C 37.057 121.487,36.743 121.608,30.750 119.662 C 17.738 115.436,14.415 108.004,17.599 90.250 C 18.545 84.976,18.675 84.140,18.935 81.667 C 19.942 72.076,17.535 68.273,9.695 67.072 C 7.175 66.686,7.333 66.959,7.333 63.009 C 7.333 59.158,7.197 59.435,9.266 59.079 C 13.178 58.406,14.809 57.593,16.727 55.360 C 19.554 52.070,19.811 48.570,18.008 37.917 C 15.420 22.630,16.108 16.504,20.949 11.740 C 24.328 8.414,28.947 6.136,33.250 5.671 C 35.143 5.467,36.746 5.479,36.967 5.700 M348.985 16.679 C 345.622 17.556,343.377 19.361,341.332 22.833 C 338.344 27.907,332.564 39.701,330.888 44.144 C 327.374 53.463,327.444 53.380,325.469 50.648 C 320.347 43.568,318.192 42.210,313.845 43.328 C 310.431 44.205,310.113 45.210,312.458 47.707 C 315.158 50.582,320.632 58.232,324.417 64.417 C 326.341 67.561,327.977 69.976,328.303 70.150 C 329.003 70.525,329.587 69.471,331.347 64.654 C 332.786 60.714,333.297 59.342,334.322 56.667 C 334.902 55.154,335.661 53.204,336.010 52.333 C 336.359 51.462,336.984 49.887,337.398 48.833 C 340.853 40.047,343.899 33.978,347.146 29.417 C 348.867 26.998,349.246 26.525,352.331 22.939 C 358.090 16.245,358.104 16.158,353.404 16.199 C 351.080 16.219,350.510 16.281,348.985 16.679 M233.583 17.830 C 231.017 17.899,228.257 17.965,227.451 17.977 C 226.133 17.998,225.944 18.041,225.576 18.409 L 225.167 18.818 225.169 61.867 C 225.171 107.735,225.138 105.557,225.846 105.923 C 226.406 106.213,241.652 106.291,242.396 106.008 C 243.189 105.706,243.162 106.513,243.338 78.633 C 243.431 64.031,243.547 51.765,243.597 51.375 C 243.790 49.857,243.388 49.300,251.569 62.417 C 263.731 81.916,264.989 83.656,266.269 82.759 C 267.094 82.182,274.134 71.277,284.242 54.917 C 287.048 50.376,287.372 49.950,287.642 50.455 C 287.762 50.679,287.877 59.455,288.001 77.851 C 288.125 96.247,288.241 105.063,288.362 105.374 C 288.665 106.154,289.098 106.189,297.640 106.134 L 305.530 106.083 305.848 105.690 C 306.160 105.305,306.167 104.376,306.167 61.994 L 306.167 18.691 305.728 18.345 C 305.295 18.005,305.143 18.000,296.142 18.000 L 286.995 18.000 286.433 18.542 C 286.124 18.840,285.028 20.546,283.997 22.333 C 272.168 42.845,266.763 51.751,265.905 52.142 C 265.259 52.436,264.543 51.589,262.542 48.167 C 259.895 43.637,258.067 40.532,256.261 37.500 C 255.142 35.621,253.677 33.108,253.006 31.917 C 251.616 29.448,246.030 20.119,245.287 19.025 C 244.412 17.737,242.892 17.582,233.583 17.830 M69.083 18.115 C 61.270 18.525,56.217 20.748,50.822 26.152 C 45.343 31.640,43.769 36.167,44.065 45.583 C 44.293 52.874,45.483 56.104,49.404 60.076 C 53.670 64.397,58.853 66.764,73.500 71.078 C 83.977 74.164,86.260 75.956,86.243 81.083 C 86.225 86.315,83.460 88.416,76.324 88.619 C 69.555 88.812,63.159 86.829,57.018 82.636 C 55.902 81.873,54.306 80.781,53.472 80.208 C 51.230 78.669,50.520 78.849,48.790 81.396 C 47.729 82.960,45.796 85.507,43.301 88.632 C 40.381 92.288,40.387 92.067,43.148 94.383 C 49.813 99.975,60.084 104.429,68.583 105.413 C 91.670 108.086,106.433 96.068,104.510 76.167 C 103.961 70.485,102.578 67.301,99.091 63.687 C 94.263 58.684,89.582 56.312,77.833 52.915 C 64.625 49.096,61.833 47.226,61.833 42.199 C 61.833 33.042,76.094 32.590,89.919 41.309 C 93.054 43.286,92.787 43.394,95.635 39.000 C 96.735 37.304,98.581 34.533,99.739 32.842 C 102.645 28.597,102.661 28.923,99.433 26.618 C 90.402 20.170,80.867 17.498,69.083 18.115 M187.106 18.345 L 186.667 18.691 186.667 62.020 L 186.667 105.348 187.057 105.739 C 187.750 106.432,195.257 106.549,197.981 105.910 C 203.446 104.627,206.417 99.053,205.352 92.083 C 204.957 89.502,205.100 88.857,206.432 87.223 C 207.308 86.146,207.373 85.562,206.750 84.333 C 206.156 83.161,206.205 82.948,207.321 81.845 C 208.767 80.417,208.850 80.021,208.286 77.268 C 207.243 72.187,207.348 71.838,210.576 69.670 C 216.793 65.494,216.645 64.179,208.757 53.527 C 203.895 46.962,203.707 46.195,205.726 41.150 C 207.136 37.626,207.152 37.978,205.353 32.551 C 202.474 23.866,200.199 18.991,198.661 18.213 C 197.854 17.804,187.645 17.921,187.106 18.345 M146.986 18.425 C 141.861 18.958,135.025 21.683,130.203 25.113 C 108.316 40.683,105.422 74.523,124.321 93.894 C 135.880 105.743,151.360 109.376,167.676 104.071 C 172.285 102.572,174.113 101.507,174.275 100.225 C 174.359 99.564,173.082 97.077,171.326 94.479 C 170.977 93.963,169.743 92.050,168.583 90.229 C 165.785 85.833,165.939 85.937,163.584 86.843 C 158.021 88.986,149.239 88.786,144.500 86.410 C 139.056 83.681,133.647 76.915,131.980 70.750 C 131.124 67.583,131.363 55.203,132.336 52.298 C 136.779 39.037,150.162 32.443,162.902 37.239 C 165.842 38.345,166.413 37.818,172.469 28.382 C 175.417 23.792,175.311 23.249,171.061 21.114 C 166.359 18.752,155.494 17.539,146.986 18.425 M244.068 18.891 C 244.301 19.044,244.742 19.562,245.048 20.043 C 246.061 21.633,251.093 30.048,252.248 32.083 C 252.872 33.183,254.226 35.508,255.258 37.250 C 256.968 40.137,259.331 44.156,262.098 48.882 C 263.931 52.013,264.912 53.167,265.745 53.167 C 266.685 53.167,269.744 48.386,278.915 32.583 C 287.207 18.297,286.704 19.108,287.416 18.871 C 288.371 18.552,304.831 18.652,305.225 18.979 C 305.638 19.322,305.651 104.658,305.238 105.071 C 304.843 105.467,289.487 105.469,289.159 105.074 C 288.987 104.867,288.918 100.048,288.816 80.949 C 288.640 48.351,288.656 48.958,287.970 48.741 C 287.471 48.582,286.969 49.149,285.457 51.583 C 269.706 76.936,266.156 82.344,265.439 82.069 C 264.674 81.775,259.111 73.251,248.588 56.250 C 243.894 48.667,243.622 48.339,242.992 49.515 C 242.775 49.921,242.517 72.597,242.507 92.273 C 242.500 103.789,242.480 104.654,242.208 104.985 C 241.917 105.340,241.903 105.340,234.088 105.295 L 226.260 105.250 226.048 104.833 C 225.733 104.211,225.817 19.283,226.133 18.967 C 226.608 18.491,243.350 18.421,244.068 18.891 M78.167 19.099 C 86.189 20.051,94.696 23.554,100.460 28.277 C 101.440 29.080,101.457 29.032,98.848 32.852 C 97.634 34.629,95.803 37.358,94.779 38.917 C 92.532 42.335,92.805 42.235,90.196 40.601 C 75.666 31.509,61.167 32.336,61.167 42.259 C 61.167 47.738,64.205 49.812,78.000 53.751 C 95.326 58.699,102.595 64.852,103.693 75.500 C 105.559 93.603,94.434 105.006,74.917 104.995 C 66.158 104.990,58.802 103.044,50.784 98.609 C 46.790 96.401,42.197 93.049,41.905 92.131 C 41.779 91.732,41.819 91.672,44.686 88.071 C 46.004 86.414,47.608 84.321,48.250 83.421 C 51.098 79.425,51.102 79.423,53.333 80.990 C 58.642 84.718,62.246 86.737,65.362 87.727 C 78.480 91.896,87.728 88.721,87.114 80.260 C 86.744 75.162,84.084 73.367,71.417 69.667 C 55.074 64.894,48.704 60.824,45.902 53.364 C 44.960 50.858,44.496 43.508,44.980 38.771 C 45.776 30.977,52.989 23.010,62.000 19.972 C 65.504 18.791,72.425 18.417,78.167 19.099 M198.041 18.842 C 199.586 19.271,202.178 24.907,205.160 34.327 C 206.373 38.156,206.371 37.493,205.179 40.482 C 202.829 46.378,202.932 46.839,208.187 54.000 C 215.520 63.990,215.757 65.137,211.149 68.352 C 208.043 70.519,207.681 70.819,207.301 71.537 C 206.794 72.497,206.820 73.968,207.392 76.665 C 208.061 79.822,208.044 79.956,206.777 81.305 C 205.418 82.751,205.341 83.062,205.996 84.460 C 206.596 85.744,206.574 85.866,205.494 87.206 C 204.400 88.564,204.221 89.348,204.522 91.471 C 205.556 98.783,203.051 104.029,197.989 105.148 C 195.127 105.782,188.194 105.693,187.646 105.016 C 187.247 104.523,187.144 19.641,187.542 19.129 C 187.900 18.668,196.562 18.431,198.041 18.842 M156.274 18.995 C 157.177 19.083,159.044 19.232,160.421 19.324 C 165.734 19.682,170.880 21.255,173.092 23.197 C 174.271 24.232,173.910 25.034,168.981 32.333 C 165.718 37.165,165.485 37.311,162.558 36.339 C 160.689 35.719,158.006 35.172,155.583 34.919 C 145.793 33.896,135.422 41.245,131.700 51.842 C 130.406 55.526,130.290 68.046,131.514 71.861 C 133.487 78.009,138.991 84.536,144.417 87.161 C 149.240 89.496,157.179 89.779,163.022 87.826 C 165.247 87.082,165.513 87.048,165.866 87.458 C 167.146 88.944,173.500 99.409,173.500 100.030 C 173.500 102.274,161.574 105.658,153.559 105.688 C 126.062 105.791,106.576 78.169,114.180 49.868 C 119.564 29.827,136.923 17.096,156.274 18.995 M361.663 57.553 C 359.960 58.254,357.066 60.887,353.752 64.750 C 352.079 66.701,349.654 69.153,349.117 69.437 C 348.122 69.963,347.532 69.174,344.750 63.600 C 342.560 59.212,342.591 59.244,340.528 59.265 C 335.288 59.320,335.126 60.286,338.585 70.833 C 341.577 79.956,341.582 79.565,338.435 83.653 C 337.699 84.608,336.607 86.071,336.007 86.903 C 335.407 87.736,334.601 88.829,334.215 89.334 C 325.015 101.357,323.108 106.026,325.757 110.038 C 327.730 113.028,330.710 111.458,334.333 105.517 C 338.325 98.973,343.968 90.704,345.305 89.438 C 346.236 88.556,346.760 89.062,350.438 94.392 C 352.946 98.026,353.093 98.218,354.225 99.361 C 356.458 101.615,357.583 101.178,359.658 97.250 C 360.537 95.586,360.516 95.391,359.145 92.532 C 358.587 91.369,357.549 89.104,356.837 87.500 C 356.126 85.896,355.038 83.458,354.419 82.083 C 352.699 78.264,352.499 79.088,356.406 73.896 C 365.245 62.153,366.372 60.482,366.606 58.773 C 366.740 57.797,366.267 57.158,365.429 57.181 L 364.917 57.195 365.416 57.344 C 367.488 57.962,366.597 59.794,359.929 68.636 C 358.456 70.589,356.706 72.914,356.041 73.802 C 355.375 74.690,354.613 75.685,354.346 76.014 C 352.382 78.432,352.379 78.387,354.934 84.035 C 355.337 84.925,355.667 85.693,355.667 85.742 C 355.667 85.790,356.183 86.937,356.814 88.290 C 360.624 96.455,360.503 95.685,358.451 98.744 C 356.435 101.749,355.393 101.111,350.487 93.867 C 347.224 89.049,346.216 88.117,345.176 88.959 C 344.333 89.642,338.611 97.940,335.500 102.992 C 334.813 104.108,333.916 105.561,333.508 106.219 C 330.862 110.492,328.927 111.770,326.902 110.584 C 324.796 109.349,324.587 104.855,326.460 101.083 C 327.456 99.079,332.126 92.514,338.494 84.167 C 340.144 82.003,340.955 80.845,341.153 80.367 C 341.529 79.459,340.675 76.007,338.335 68.983 C 335.610 60.805,335.671 60.385,339.689 59.590 C 342.068 59.119,342.355 59.401,345.153 64.962 C 346.247 67.137,347.300 69.085,347.492 69.290 C 348.502 70.365,350.031 69.643,352.120 67.102 C 352.731 66.359,353.911 65.029,354.741 64.149 C 355.571 63.268,356.805 61.931,357.483 61.177 C 359.529 58.905,361.042 57.949,363.333 57.483 L 364.750 57.196 363.667 57.185 C 362.902 57.178,362.313 57.286,361.663 57.553 " stroke="none" fill="#188338" fill-rule="evenodd"></path><path id="path3" d="M363.333 57.484 C 361.043 57.949,359.529 58.904,357.483 61.177 C 356.805 61.931,355.571 63.268,354.741 64.149 C 353.911 65.029,352.731 66.359,352.120 67.102 C 350.031 69.643,348.502 70.365,347.492 69.290 C 347.300 69.085,346.247 67.137,345.153 64.962 C 342.355 59.401,342.068 59.119,339.689 59.590 C 335.671 60.385,335.610 60.805,338.335 68.983 C 340.675 76.007,341.529 79.459,341.153 80.367 C 340.955 80.845,340.144 82.003,338.494 84.167 C 332.126 92.514,327.456 99.079,326.460 101.083 C 324.587 104.855,324.796 109.349,326.902 110.584 C 328.927 111.770,330.862 110.492,333.508 106.219 C 333.916 105.561,334.813 104.108,335.500 102.992 C 338.611 97.940,344.333 89.642,345.176 88.959 C 346.216 88.117,347.224 89.049,350.487 93.867 C 355.393 101.111,356.435 101.749,358.451 98.744 C 360.503 95.685,360.624 96.455,356.814 88.290 C 356.183 86.937,355.667 85.790,355.667 85.742 C 355.667 85.693,355.337 84.925,354.934 84.035 C 352.379 78.387,352.382 78.432,354.346 76.014 C 354.613 75.685,355.375 74.690,356.041 73.802 C 356.706 72.914,358.456 70.589,359.929 68.636 C 365.015 61.892,366.333 59.824,366.333 58.589 C 366.333 57.976,365.871 57.333,365.430 57.333 C 365.300 57.333,365.094 57.302,364.972 57.265 C 364.850 57.227,364.113 57.325,363.333 57.484 " stroke="none" fill="#ed1c24" fill-rule="evenodd"></path></g></svg>